<svg width="116" height="59" viewBox="0 0 116 59" fill="none" xmlns="http://www.w3.org/2000/svg">
<rect x="15.4276" y="-31.5473" width="134.698" height="32" transform="rotate(27.2988 15.4276 -31.5473)" fill="#5FC2DA"/>
<path d="M81.7052 13.6268L76.5832 23.551L74.5927 22.5237L76.7721 18.3009L72.5209 16.1068L70.3415 20.3296L68.351 19.3023L73.473 9.37807L75.4635 10.4054L73.3575 14.486L77.6087 16.6801L79.7147 12.5995L81.7052 13.6268ZM83.0977 27.0393C82.1688 26.5598 81.4282 25.9015 80.876 25.0644C80.3238 24.2272 80.0183 23.3073 79.9596 22.3047C79.9058 21.2927 80.1308 20.2985 80.6347 19.3222C81.1337 18.3553 81.8088 17.6054 82.66 17.0725C83.5162 16.5301 84.4454 16.2414 85.4477 16.2065C86.4499 16.1717 87.4155 16.3939 88.3445 16.8734C89.2828 17.3577 90.0234 18.016 90.5661 18.8483C91.1184 19.6854 91.4166 20.6076 91.461 21.6148C91.5197 22.6174 91.2996 23.6021 90.8006 24.5689C90.2967 25.5452 89.6167 26.3046 88.7606 26.847C87.9188 27.3849 86.9968 27.6712 85.9945 27.7061C84.9922 27.741 84.0266 27.5187 83.0977 27.0393ZM84.015 25.262C84.6121 25.5702 85.2067 25.709 85.7986 25.6784C86.3955 25.6384 86.9515 25.4332 87.4667 25.0629C87.9819 24.6926 88.4107 24.1757 88.7532 23.5122C89.0956 22.8487 89.2661 22.2045 89.2646 21.5795C89.2679 20.945 89.1106 20.3777 88.7926 19.8775C88.4746 19.3773 88.017 18.973 87.4199 18.6648C86.8227 18.3566 86.2234 18.2154 85.622 18.2411C85.03 18.2717 84.4764 18.4721 83.9612 18.8424C83.4509 19.2032 83.0245 19.7153 82.6821 20.3788C82.3396 21.0424 82.1667 21.6913 82.1634 22.3258C82.16 22.9603 82.3149 23.5323 82.628 24.042C82.9555 24.5471 83.4178 24.9538 84.015 25.262ZM101.581 23.8852L100.752 25.4918L98.1076 24.1269L93.8148 32.4445L91.8243 31.4171L96.1171 23.0996L93.4725 21.7347L94.3017 20.1281L101.581 23.8852Z" fill="white"/>
</svg>
