<svg width="376" height="78" viewBox="0 0 376 78" fill="none" xmlns="http://www.w3.org/2000/svg">
<path opacity="0.7" d="M2.39793 20.1927C24.387 35.98 41.4238 42.2497 68.4095 39.6016C92.7793 37.2103 118.731 24.1887 140.999 14.5204C168.568 2.55025 223.347 -8.58145 241.472 23.8627C255.547 49.0547 238.178 81.0073 207.792 74.188C196.077 71.5591 189.29 56.4707 193.83 45.5086C198.735 33.6686 214.943 27.2208 226.216 23.9471C256.49 15.1553 278.45 42.7811 306.46 46.342C332.629 49.6689 351.255 37.0305 370.041 20.2802C371.65 18.8455 371.268 27.8397 371.387 30.0778C371.826 38.2822 373.272 34.5532 372.94 28.3499C372.727 24.3603 374.375 15.7654 369.114 18.3193C365.318 20.1618 357.176 20.9679 352.819 21.2008" stroke="white" stroke-width="4.30029" stroke-linecap="round"/>
</svg>
